<?xml version="1.0" encoding="UTF-8" standalone="no" ?>
<!DOCTYPE svg PUBLIC "-//W3C//DTD SVG 1.1//EN" "http://www.w3.org/Graphics/SVG/1.1/DTD/svg11.dtd">
<svg xmlns="http://www.w3.org/2000/svg" xmlns:xlink="http://www.w3.org/1999/xlink" version="1.1" width="586.6800000000001" height="206.27631999999997" xml:space="preserve">
<desc>Created with Fabric.js 1.6.0-rc.1</desc>
<defs></defs>
  <g transform="translate(222.46 106.01) scale(3.86 3.51)">
   <text font-family="Mistress Script" font-size="40" font-weight="bold" style="stroke: none; stroke-width: 1; stroke-dasharray: none; stroke-linecap: butt; stroke-linejoin: miter; stroke-miterlimit: 10; fill: #bd1b1b; fill-rule: nonzero; opacity: 1;" ><tspan x="-54.54" y="8.98" style="stroke: none; stroke-width: 0; stroke-dasharray: none; stroke-linecap: butt; stroke-linejoin: miter; stroke-miterlimit: 4; fill: #bd1b1b; fill-rule: ; opacity: 1;">s</tspan><tspan x="-37.18" y="8.98" style="stroke: none; stroke-width: 0; stroke-dasharray: none; stroke-linecap: butt; stroke-linejoin: miter; stroke-miterlimit: 4; fill: #bd1b1b; fill-rule: ; opacity: 1;">c</tspan><tspan x="-17.61" y="8.98" style="stroke: none; stroke-width: 0; stroke-dasharray: none; stroke-linecap: butt; stroke-linejoin: miter; stroke-miterlimit: 4; fill: #bd1b1b; fill-rule: ; opacity: 1;">r</tspan><tspan x="0.23" y="8.98" style="stroke: none; stroke-width: 0; stroke-dasharray: none; stroke-linecap: butt; stroke-linejoin: miter; stroke-miterlimit: 4; fill: #bd1b1b; fill-rule: ; opacity: 1;">u</tspan><tspan x="22.31" y="8.98" style="stroke: none; stroke-width: 0; stroke-dasharray: none; stroke-linecap: butt; stroke-linejoin: miter; stroke-miterlimit: 4; fill: #bd1b1b; fill-rule: ; opacity: 1;">m</tspan></text>
 </g>
<g style="stroke: none; stroke-width: 1; stroke-dasharray: none; stroke-linecap: butt; stroke-linejoin: miter; stroke-miterlimit: 10; fill: none; fill-rule: nonzero; opacity: 1;" transform="translate(392 10) scale(0.36 0.36)" >
  <circle cx="256" cy="256" r="256" style="stroke: none; stroke-width: 1; stroke-dasharray: none; stroke-linecap: butt; stroke-linejoin: miter; stroke-miterlimit: 10; fill: #FFEDB5; fill-rule: nonzero; opacity: 0;" transform="  matrix(1 0 0 1 0 0) "/>
  <path d="M 306.809 506.949 c 100.764 -20.29 180.1 -99.745 200.223 -200.57 L 349.789 149.135 L 161.473 317.773 l 2.443 10.269 l -17.96 18.053 L 306.809 506.949 z" style="stroke: none; stroke-width: 1; stroke-dasharray: none; stroke-linecap: butt; stroke-linejoin: miter; stroke-miterlimit: 10; fill: #FEE187; fill-rule: nonzero; opacity: 0;" transform=" matrix(1 0 0 1 0 0) " stroke-linecap="round" />
  <circle cx="255.99599999999998" cy="255.99599999999998" r="121.966" style="stroke: none; stroke-width: 1; stroke-dasharray: none; stroke-linecap: butt; stroke-linejoin: miter; stroke-miterlimit: 10; fill: #D0D1D3; fill-rule: nonzero; opacity: 0;" transform="  matrix(1 0 0 1 0 0) "/>
  <path d="M 350.792 256 h 47.397 c 0 -39.295 -15.9 -74.843 -41.622 -100.566 l -33.523 33.523 C 340.192 206.105 350.792 229.804 350.792 256 z" style="stroke: none; stroke-width: 1; stroke-dasharray: none; stroke-linecap: butt; stroke-linejoin: miter; stroke-miterlimit: 10; fill: #E09112; fill-rule: nonzero; opacity: 1;" transform=" matrix(1 0 0 1 0 0) " stroke-linecap="round" />
  <path d="M 323.029 323.029 l 33.514 33.514 c 27.786 -27.788 41.679 -64.165 41.679 -100.543 h -47.407 C 350.815 280.252 341.552 304.504 323.029 323.029 z" style="stroke: none; stroke-width: 1; stroke-dasharray: none; stroke-linecap: butt; stroke-linejoin: miter; stroke-miterlimit: 10; fill: #FF314F; fill-rule: nonzero; opacity: 1;" transform=" matrix(1 0 0 1 0 0) " stroke-linecap="round" />
  <path d="M 256 350.792 v 47.397 c 39.295 0 74.843 -15.9 100.566 -41.622 l -33.523 -33.523 C 305.895 340.192 282.196 350.792 256 350.792 z" style="stroke: none; stroke-width: 1; stroke-dasharray: none; stroke-linecap: butt; stroke-linejoin: miter; stroke-miterlimit: 10; fill: #A30F44; fill-rule: nonzero; opacity: 1;" transform=" matrix(1 0 0 1 0 0) " stroke-linecap="round" />
  <path d="M 188.971 323.029 l -33.514 33.514 c 27.788 27.786 64.166 41.679 100.543 41.679 v -47.407 C 231.748 350.815 207.496 341.552 188.971 323.029 z" style="stroke: none; stroke-width: 1; stroke-dasharray: none; stroke-linecap: butt; stroke-linejoin: miter; stroke-miterlimit: 10; fill: #386895; fill-rule: nonzero; opacity: 1;" transform=" matrix(1 0 0 1 0 0) " stroke-linecap="round" />
  <path d="M 161.208 256 h -47.397 c 0 39.295 15.9 74.843 41.622 100.566 l 33.523 -33.521 C 171.808 305.895 161.208 282.196 161.208 256 z" style="stroke: none; stroke-width: 1; stroke-dasharray: none; stroke-linecap: butt; stroke-linejoin: miter; stroke-miterlimit: 10; fill: #02B2B2; fill-rule: nonzero; opacity: 1;" transform=" matrix(1 0 0 1 0 0) " stroke-linecap="round" />
  <path d="M 188.971 188.971 l -33.513 -33.513 c -27.788 27.786 -41.681 64.164 -41.681 100.542 h 47.407 C 161.185 231.748 170.448 207.496 188.971 188.971 z" style="stroke: none; stroke-width: 1; stroke-dasharray: none; stroke-linecap: butt; stroke-linejoin: miter; stroke-miterlimit: 10; fill: #6CAF5F; fill-rule: nonzero; opacity: 1;" transform=" matrix(1 0 0 1 0 0) " stroke-linecap="round" />
  <path d="M 256 161.208 v -47.397 c -39.296 0 -74.843 15.9 -100.566 41.622 l 33.523 33.523 C 206.105 171.808 229.802 161.208 256 161.208 z" style="stroke: none; stroke-width: 1; stroke-dasharray: none; stroke-linecap: butt; stroke-linejoin: miter; stroke-miterlimit: 10; fill: #8BC180; fill-rule: nonzero; opacity: 1;" transform=" matrix(1 0 0 1 0 0) " stroke-linecap="round" />
  <path d="M 323.029 188.971 l 33.514 -33.514 c -27.788 -27.786 -64.165 -41.679 -100.543 -41.679 v 47.407 C 280.252 161.185 304.504 170.448 323.029 188.971 z" style="stroke: none; stroke-width: 1; stroke-dasharray: none; stroke-linecap: butt; stroke-linejoin: miter; stroke-miterlimit: 10; fill: #FFC61B; fill-rule: nonzero; opacity: 1;" transform=" matrix(1 0 0 1 0 0) " stroke-linecap="round" />
</g>
</svg>