<?xml version="1.0" encoding="UTF-8" standalone="no" ?>
<!DOCTYPE svg PUBLIC "-//W3C//DTD SVG 1.1//EN" "http://www.w3.org/Graphics/SVG/1.1/DTD/svg11.dtd">
<svg xmlns="http://www.w3.org/2000/svg" xmlns:xlink="http://www.w3.org/1999/xlink" version="1.1" width="657.649997768402" height="333.39" xml:space="preserve">
<desc>Created with Fabric.js 1.6.0-rc.1</desc>
<defs></defs>
<g style="stroke: none; stroke-width: 1; stroke-dasharray: none; stroke-linecap: butt; stroke-linejoin: miter; stroke-miterlimit: 10; fill: none; fill-rule: nonzero; opacity: 1;" transform="translate(259.78 51.72999999999996) rotate(321.43) scale(1.7 1.7)" >
  <path d="M 96.5 79.1 c 0 -0.7 0 -1.3 -0.1 -1.9 l 8.2 -3.8 c -0.2 -1.1 -0.4 -2.2 -0.7 -3.3 l -9 0.1 c -0.5 -1.2 -1 -2.4 -1.7 -3.5 l 5.7 -7 c -0.7 -0.9 -1.4 -1.8 -2.1 -2.6 l -8.1 4 c -1 -0.9 -2 -1.7 -3 -2.4 l 2.1 -8.8 c -1 -0.5 -2 -1 -3 -1.5 l -5.5 7.1 c -1.2 -0.4 -2.5 -0.7 -3.8 -0.9 l -1.9 -8.8 c -0.6 0 -1.1 0 -1.7 0 s -1.1 0 -1.7 0 l -1.9 8.8 c -1.3 0.2 -2.6 0.5 -3.8 0.9 l -5.5 -7.1 c -1 0.4 -2 0.9 -3 1.5 l 2.1 8.8 c -1.1 0.7 -2.1 1.5 -3 2.4 l -8.1 -4 c -0.7 0.8 -1.4 1.7 -2.1 2.6 l 5.7 7 c -0.7 1.1 -1.2 2.3 -1.7 3.5 l -9 -0.1 c -0.3 1.1 -0.6 2.2 -0.7 3.3 l 8.2 3.8 c -0.1 0.6 -0.1 1.3 -0.1 1.9 c 0 0.7 0 1.3 0.1 1.9 l -8.2 3.8 c 0.2 1.1 0.4 2.2 0.7 3.3 l 9 -0.1 c 0.5 1.2 1 2.4 1.7 3.5 l -5.7 7 c 0.7 0.9 1.4 1.8 2.1 2.6 l 8.1 -4 c 0.9 0.9 2 1.7 3 2.4 l -2.1 8.8 c 1 0.5 2 1 3 1.5 l 5.5 -7.1 c 1.2 0.4 2.5 0.7 3.8 0.9 l 1.9 8.8 c 1.1 0.1 2.2 0.1 3.4 0 l 1.9 -8.8 c 1.3 -0.2 2.6 -0.5 3.8 -0.9 l 5.5 7.1 c 1 -0.4 2 -0.9 3 -1.5 l -2.1 -8.8 c 1.1 -0.7 2.1 -1.5 3 -2.4 l 8.1 4 c 0.7 -0.8 1.4 -1.7 2.1 -2.6 l -5.7 -7 c 0.7 -1.1 1.2 -2.3 1.7 -3.5 l 9 0.1 c 0.3 -1.1 0.5 -2.2 0.7 -3.3 L 96.4 81 C 96.4 80.4 96.5 79.8 96.5 79.1 z" style="stroke: none; stroke-width: 1; stroke-dasharray: none; stroke-linecap: butt; stroke-linejoin: miter; stroke-miterlimit: 10; fill: #000001; fill-rule: nonzero; opacity: 1;" transform=" matrix(1 0 0 1 0 0) " stroke-linecap="round" />
  <path d="M 81 79.1 c 0 5.2 -4.2 9.4 -9.4 9.4 c -5.2 0 -9.4 -4.2 -9.4 -9.4 c 0.1 -5.2 4.3 -9.3 9.5 -9.2 C 76.9 69.9 81 74 81 79.1 z" style="stroke: none; stroke-width: 1; stroke-dasharray: none; stroke-linecap: butt; stroke-linejoin: miter; stroke-miterlimit: 10; fill: #1768bf; fill-rule: nonzero; opacity: 1;" transform=" matrix(1 0 0 1 0 0) " stroke-linecap="round" />
  <path d="M 78 79.1 c 0 3.5 -2.7 6.4 -6.2 6.4 s -6.4 -2.7 -6.4 -6.2 c 0 -0.1 0 -0.1 0 -0.2 c 0 -3.5 2.8 -6.3 6.3 -6.3 S 78 75.6 78 79.1 z" style="stroke: none; stroke-width: 1; stroke-dasharray: none; stroke-linecap: butt; stroke-linejoin: miter; stroke-miterlimit: 10; fill: #535b63; fill-rule: nonzero; opacity: 1;" transform=" matrix(1 0 0 1 0 0) " stroke-linecap="round" />
  <path d="M 179.5 116.1 c 0 -0.8 0 -1.6 -0.1 -2.4 l 10.3 -4.8 c -0.2 -1.4 -0.6 -2.8 -0.9 -4.1 l -11.3 0.1 c -0.6 -1.5 -1.3 -3 -2.1 -4.4 l 7.2 -8.8 c -0.8 -1.1 -1.7 -2.3 -2.6 -3.3 l -10.1 5 c -1.2 -1.1 -2.5 -2.1 -3.8 -3.1 l 2.6 -11 c -1.2 -0.7 -2.5 -1.3 -3.8 -1.8 l -7 8.9 c -1.6 -0.5 -3.2 -0.8 -4.8 -1.1 l -2.4 -11.1 c -0.7 0 -1.4 -0.1 -2.1 -0.1 c -0.7 0 -1.4 0 -2.1 0.1 l -2.4 11.1 c -1.6 0.2 -3.2 0.6 -4.8 1.1 l -7 -8.9 c -1.3 0.5 -2.6 1.2 -3.8 1.8 l 2.6 11 c -1.4 0.9 -2.6 1.9 -3.8 3.1 l -10.1 -5 c -0.9 1.1 -1.8 2.2 -2.6 3.3 l 7.2 8.8 c -0.8 1.4 -1.5 2.9 -2.1 4.4 l -11.3 -0.1 c -0.4 1.4 -0.7 2.7 -0.9 4.1 l 10.3 4.8 c -0.1 0.8 -0.1 1.6 -0.1 2.4 c 0 0.8 0 1.6 0.1 2.4 l -10.3 4.8 c 0.2 1.4 0.6 2.8 0.9 4.1 l 11.3 -0.1 c 0.6 1.5 1.3 3 2.1 4.4 l -7.2 8.8 c 0.8 1.1 1.7 2.3 2.6 3.3 l 10.1 -5 c 1.2 1.1 2.5 2.1 3.8 3.1 l -2.6 11 c 1.2 0.7 2.5 1.3 3.8 1.8 l 7 -8.9 c 1.6 0.5 3.2 0.9 4.8 1.1 l 2.4 11.1 c 0.7 0 1.4 0.1 2.1 0.1 c 0.7 0 1.4 0 2.1 -0.1 l 2.4 -11.1 c 1.6 -0.2 3.2 -0.6 4.8 -1.1 l 7 8.9 c 1.3 -0.5 2.6 -1.2 3.8 -1.8 l -2.6 -11 c 1.4 -0.9 2.6 -1.9 3.8 -3.1 l 10.1 5 c 0.9 -1.1 1.8 -2.2 2.6 -3.3 l -7.2 -8.8 c 0.8 -1.4 1.5 -2.9 2.1 -4.4 l 11.3 0.1 c 0.4 -1.4 0.7 -2.7 0.9 -4.1 l -10.3 -4.8 C 179.5 117.8 179.5 117 179.5 116.1 L 179.5 116.1 z" style="stroke: none; stroke-width: 1; stroke-dasharray: none; stroke-linecap: butt; stroke-linejoin: miter; stroke-miterlimit: 10; fill: #000001; fill-rule: nonzero; opacity: 1;" transform=" matrix(1 0 0 1 0 0) " stroke-linecap="round" />
  <path d="M 164.8 116.1 c 0 9.1 -7.4 16.5 -16.5 16.5 c -9.1 0 -16.5 -7.4 -16.5 -16.5 c 0 -9.1 7.4 -16.5 16.5 -16.5 C 157.4 99.7 164.8 107 164.8 116.1 L 164.8 116.1 z" style="stroke: none; stroke-width: 1; stroke-dasharray: none; stroke-linecap: butt; stroke-linejoin: miter; stroke-miterlimit: 10; fill: #1768bf; fill-rule: nonzero; opacity: 1;" transform=" matrix(1 0 0 1 0 0) " stroke-linecap="round" />
  <path d="M 160.2 116.1 c 0 6.6 -5.3 11.9 -11.9 11.9 c -6.6 0 -11.9 -5.3 -11.9 -11.9 c 0 -6.6 5.3 -11.9 11.9 -11.9 C 154.9 104.3 160.2 109.6 160.2 116.1 z" style="stroke: none; stroke-width: 1; stroke-dasharray: none; stroke-linecap: butt; stroke-linejoin: miter; stroke-miterlimit: 10; fill: #000001; fill-rule: nonzero; opacity: 1;" transform=" matrix(1 0 0 1 0 0) " stroke-linecap="round" />
  <path d="M 107.2 123.8 c 0 -0.7 0 -1.4 -0.1 -2 l 8.6 -4 c -0.2 -1.2 -0.5 -2.3 -0.8 -3.5 l -9.5 0.1 c -0.5 -1.3 -1.1 -2.5 -1.8 -3.7 l 6 -7.3 c -0.7 -1 -1.4 -1.9 -2.2 -2.8 l -8.5 4.2 c -1 -0.9 -2.1 -1.8 -3.2 -2.6 l 2.2 -9.2 c -1 -0.6 -2.1 -1.1 -3.2 -1.5 l -5.8 7.5 c -1.3 -0.4 -2.6 -0.7 -4 -0.9 l -2 -9.3 c -1.2 -0.1 -2.4 -0.1 -3.5 0 l -2 9.3 c -1.4 0.2 -2.7 0.5 -4 0.9 l -5.8 -7.5 c -1.1 0.5 -2.2 1 -3.2 1.5 l 2.2 9.2 c -1.1 0.8 -2.2 1.6 -3.2 2.6 l -8.5 -4.2 c -0.8 0.9 -1.5 1.8 -2.2 2.8 l 6 7.3 c -0.7 1.2 -1.3 2.4 -1.8 3.7 l -9.5 -0.1 c -0.3 1.1 -0.6 2.3 -0.8 3.5 l 8.6 4 c -0.1 0.7 -0.1 1.4 -0.1 2 c 0 0.7 0 1.4 0.1 2 l -8.6 4 c 0.2 1.2 0.5 2.3 0.8 3.5 l 9.5 -0.1 c 0.5 1.3 1.1 2.5 1.8 3.7 l -6 7.3 c 0.7 1 1.4 1.9 2.2 2.8 l 8.5 -4.2 c 1 0.9 2.1 1.8 3.2 2.6 l -2.2 9.2 c 1 0.6 2.1 1.1 3.2 1.5 l 5.8 -7.5 c 1.3 0.4 2.6 0.7 4 0.9 l 2 9.3 c 0.6 0 1.2 0 1.8 0 c 0.6 0 1.2 0 1.8 0 l 2 -9.3 c 1.4 -0.2 2.7 -0.5 4 -0.9 l 5.8 7.5 c 1.1 -0.5 2.2 -1 3.2 -1.5 l -2.2 -9.2 c 1.1 -0.8 2.2 -1.6 3.2 -2.6 l 8.5 4.2 c 0.8 -0.9 1.5 -1.8 2.2 -2.8 l -6 -7.3 c 0.7 -1.2 1.3 -2.4 1.8 -3.7 l 9.5 0.1 c 0.3 -1.1 0.6 -2.3 0.8 -3.5 l -8.6 -4 C 107.2 125.1 107.2 124.5 107.2 123.8 z" style="stroke: none; stroke-width: 1; stroke-dasharray: none; stroke-linecap: butt; stroke-linejoin: miter; stroke-miterlimit: 10; fill: #535b63; fill-rule: nonzero; opacity: 1;" transform=" matrix(1 0 0 1 0 0) " stroke-linecap="round" />
  <path d="M 54.8 93.4 c 0 -0.5 0 -1 -0.1 -1.5 l 6.5 -3 c -0.2 -0.9 -0.3 -1.7 -0.6 -2.6 l -7.1 0.1 c -0.4 -1 -0.8 -1.9 -1.3 -2.8 l 4.5 -5.5 c -0.5 -0.7 -1.1 -1.4 -1.7 -2.1 l -6.4 3.2 c -0.8 -0.7 -1.6 -1.3 -2.4 -1.9 l 1.7 -7 c -0.8 -0.4 -1.6 -0.8 -2.4 -1.2 l -4.4 5.6 c -1 -0.3 -2 -0.5 -3 -0.7 l -1.5 -7 c -0.4 0 -0.9 0 -1.3 0 c -0.4 0 -0.9 0 -1.3 0 l -1.5 7 c -1 0.2 -2 0.4 -3 0.7 L 24.9 69 c -0.8 0.3 -1.6 0.7 -2.4 1.2 l 1.7 7 c -0.9 0.6 -1.7 1.2 -2.4 1.9 l -6.4 -3.2 c -0.6 0.7 -1.1 1.4 -1.7 2.1 l 4.5 5.5 c -0.5 0.9 -1 1.8 -1.3 2.8 l -7.1 -0.1 c -0.2 0.9 -0.4 1.7 -0.6 2.6 l 6.5 3 c 0 0.5 -0.1 1 -0.1 1.5 c 0 0.5 0 1 0.1 1.5 l -6.5 3 c 0.2 0.9 0.4 1.8 0.6 2.6 l 7.1 -0.1 c 0.4 1 0.8 1.9 1.3 2.8 l -4.5 5.5 c 0.5 0.7 1.1 1.4 1.7 2.1 l 6.4 -3.2 c 0.8 0.7 1.6 1.4 2.4 1.9 l -1.7 6.9 c 0.8 0.4 1.6 0.8 2.4 1.2 l 4.4 -5.6 c 1 0.3 2 0.5 3 0.7 l 1.5 7 c 0.9 0 1.8 0 2.7 0 l 1.5 -7 c 1 -0.1 2 -0.4 3 -0.7 l 4.4 5.6 c 0.8 -0.3 1.6 -0.7 2.4 -1.2 l -1.7 -6.9 c 0.9 -0.6 1.7 -1.2 2.4 -1.9 l 6.4 3.2 c 0.6 -0.7 1.1 -1.4 1.7 -2.1 l -4.5 -5.5 c 0.5 -0.9 1 -1.8 1.3 -2.8 l 7.1 0.1 c 0.2 -0.9 0.4 -1.7 0.6 -2.6 l -6.5 -3 C 54.8 94.4 54.8 93.9 54.8 93.4 z" style="stroke: none; stroke-width: 1; stroke-dasharray: none; stroke-linecap: butt; stroke-linejoin: miter; stroke-miterlimit: 10; fill: #000001; fill-rule: nonzero; opacity: 1;" transform=" matrix(1 0 0 1 0 0) " stroke-linecap="round" />
  <path d="M 93.6 123.8 c 0 6.9 -5.6 12.5 -12.5 12.5 c -6.9 0 -12.5 -5.6 -12.5 -12.5 c 0 -6.9 5.6 -12.5 12.5 -12.5 C 88.1 111.3 93.6 116.9 93.6 123.8 z" style="stroke: none; stroke-width: 1; stroke-dasharray: none; stroke-linecap: butt; stroke-linejoin: miter; stroke-miterlimit: 10; fill: #1768bf; fill-rule: nonzero; opacity: 1;" transform=" matrix(1 0 0 1 0 0) " stroke-linecap="round" />
  <path d="M 90.2 123.8 c 0 5 -4 9 -9 9 s -9 -4 -9 -9 c 0 -5 4 -9 9 -9 S 90.2 118.8 90.2 123.8 z" style="stroke: none; stroke-width: 1; stroke-dasharray: none; stroke-linecap: butt; stroke-linejoin: miter; stroke-miterlimit: 10; fill: #000001; fill-rule: nonzero; opacity: 1;" transform=" matrix(1 0 0 1 0 0) " stroke-linecap="round" />
  <circle cx="35.2" cy="93.4" r="9" style="stroke: none; stroke-width: 1; stroke-dasharray: none; stroke-linecap: butt; stroke-linejoin: miter; stroke-miterlimit: 10; fill: #1768bf; fill-rule: nonzero; opacity: 1;" transform="  matrix(1 0 0 1 0 0) "/>
  <circle cx="35.2" cy="93.4" r="6.5" style="stroke: none; stroke-width: 1; stroke-dasharray: none; stroke-linecap: butt; stroke-linejoin: miter; stroke-miterlimit: 10; fill: #000001; fill-rule: nonzero; opacity: 1;" transform="  matrix(1 0 0 1 0 0) "/>
</g>
  <g transform="translate(330.58 103.77) scale(3.51 3.51)">
   <text font-family="Delicate" font-size="40" font-weight="normal" style="stroke: none; stroke-width: 1; stroke-dasharray: none; stroke-linecap: butt; stroke-linejoin: miter; stroke-miterlimit: 10; fill: #d1d1d1; fill-rule: nonzero; opacity: 1;" ><tspan x="-90.83" y="8.98" style="stroke: none; stroke-width: 0; stroke-dasharray: none; stroke-linecap: butt; stroke-linejoin: miter; stroke-miterlimit: 4; fill: #d1d1d1; fill-rule: ; opacity: 1;">P</tspan><tspan x="-68.6" y="8.98" style="stroke: none; stroke-width: 0; stroke-dasharray: none; stroke-linecap: butt; stroke-linejoin: miter; stroke-miterlimit: 4; fill: #d1d1d1; fill-rule: ; opacity: 1;">r</tspan><tspan x="-49.72" y="8.98" style="stroke: none; stroke-width: 0; stroke-dasharray: none; stroke-linecap: butt; stroke-linejoin: miter; stroke-miterlimit: 4; fill: #d1d1d1; fill-rule: ; opacity: 1;">o</tspan><tspan x="-24.15" y="8.98" style="stroke: none; stroke-width: 0; stroke-dasharray: none; stroke-linecap: butt; stroke-linejoin: miter; stroke-miterlimit: 4; fill: #d1d1d1; fill-rule: ; opacity: 1;">t</tspan><tspan x="-11.38" y="8.98" style="stroke: none; stroke-width: 0; stroke-dasharray: none; stroke-linecap: butt; stroke-linejoin: miter; stroke-miterlimit: 4; fill: #d1d1d1; fill-rule: ; opacity: 1;">o</tspan><tspan x="14.18" y="8.98" style="stroke: none; stroke-width: 0; stroke-dasharray: none; stroke-linecap: butt; stroke-linejoin: miter; stroke-miterlimit: 4; fill: #d1d1d1; fill-rule: ; opacity: 1;">t</tspan><tspan x="26.95" y="8.98" style="stroke: none; stroke-width: 0; stroke-dasharray: none; stroke-linecap: butt; stroke-linejoin: miter; stroke-miterlimit: 4; fill: #d1d1d1; fill-rule: ; opacity: 1;">y</tspan><tspan x="43.63" y="8.98" style="stroke: none; stroke-width: 0; stroke-dasharray: none; stroke-linecap: butt; stroke-linejoin: miter; stroke-miterlimit: 4; fill: #d1d1d1; fill-rule: ; opacity: 1;">p</tspan><tspan x="68.07" y="8.98" style="stroke: none; stroke-width: 0; stroke-dasharray: none; stroke-linecap: butt; stroke-linejoin: miter; stroke-miterlimit: 4; fill: #d1d1d1; fill-rule: ; opacity: 1;">e</tspan></text>
 </g>
</svg>