<?xml version="1.0" encoding="UTF-8" standalone="no" ?>
<!DOCTYPE svg PUBLIC "-//W3C//DTD SVG 1.1//EN" "http://www.w3.org/Graphics/SVG/1.1/DTD/svg11.dtd">
<svg xmlns="http://www.w3.org/2000/svg" xmlns:xlink="http://www.w3.org/1999/xlink" version="1.1" width="576.9250000000001" height="479.61" xml:space="preserve">
<desc>Created with Fabric.js 1.6.0-rc.1</desc>
<defs></defs>
<g style="stroke: none; stroke-width: 1; stroke-dasharray: none; stroke-linecap: butt; stroke-linejoin: miter; stroke-miterlimit: 10; fill: none; fill-rule: nonzero; opacity: 1;" transform="translate(335.20000000000005 235.87) rotate(205.83) scale(4.03 4.03)" >
  <path d="M 42.111 8.847 c -0.473 -0.29 -1.087 -0.143 -1.376 0.327 c -0.29 0.471 -0.143 1.086 0.327 1.376 C 48.224 14.96 52.5 22.604 52.5 31 c 0 2.067 -0.271 4.137 -0.805 6.152 c -0.141 0.533 0.177 1.081 0.711 1.223 c 0.085 0.022 0.172 0.033 0.256 0.033 c 0.443 0 0.848 -0.296 0.966 -0.744 C 54.207 35.482 54.5 33.24 54.5 31 C 54.5 21.905 49.869 13.623 42.111 8.847 z" style="stroke: none; stroke-width: 1; stroke-dasharray: none; stroke-linecap: butt; stroke-linejoin: miter; stroke-miterlimit: 10; fill: #424A60; fill-rule: nonzero; opacity: 1;" transform=" matrix(1 0 0 1 0 0) " stroke-linecap="round" />
  <path d="M 37.671 53.182 C 34.756 54.388 31.671 55 28.5 55 c -6.728 0 -13.189 -2.854 -17.728 -7.832 c -0.372 -0.408 -1.003 -0.437 -1.413 -0.065 c -0.408 0.372 -0.437 1.005 -0.065 1.413 C 14.211 53.907 21.211 57 28.5 57 c 3.435 0 6.778 -0.663 9.936 -1.971 c 0.51 -0.211 0.753 -0.796 0.542 -1.307 C 38.767 53.213 38.181 52.971 37.671 53.182 z" style="stroke: none; stroke-width: 1; stroke-dasharray: none; stroke-linecap: butt; stroke-linejoin: miter; stroke-miterlimit: 10; fill: #424A60; fill-rule: nonzero; opacity: 1;" transform=" matrix(1 0 0 1 0 0) " stroke-linecap="round" />
  <path d="M 22.784 7.687 c 0.537 -0.132 0.865 -0.673 0.734 -1.209 c -0.13 -0.536 -0.674 -0.862 -1.208 -0.734 C 11.302 8.434 3.371 17.838 2.573 29.146 c -0.039 0.551 0.376 1.029 0.927 1.067 c 0.024 0.002 0.048 0.003 0.071 0.003 c 0.521 0 0.959 -0.402 0.997 -0.93 C 5.305 18.85 12.625 10.169 22.784 7.687 z" style="stroke: none; stroke-width: 1; stroke-dasharray: none; stroke-linecap: butt; stroke-linejoin: miter; stroke-miterlimit: 10; fill: #424A60; fill-rule: nonzero; opacity: 1;" transform=" matrix(1 0 0 1 0 0) " stroke-linecap="round" />
  <circle cx="28.5" cy="6" r="6" style="stroke: none; stroke-width: 1; stroke-dasharray: none; stroke-linecap: butt; stroke-linejoin: miter; stroke-miterlimit: 10; fill: #EBBA16; fill-rule: nonzero; opacity: 1;" transform="  matrix(1 0 0 1 0 0) "/>
  <circle cx="6.5" cy="43" r="6" style="stroke: none; stroke-width: 1; stroke-dasharray: none; stroke-linecap: butt; stroke-linejoin: miter; stroke-miterlimit: 10; fill: #7383BF; fill-rule: nonzero; opacity: 1;" transform="  matrix(1 0 0 1 0 0) "/>
  <circle cx="50.5" cy="43" r="6" style="stroke: none; stroke-width: 1; stroke-dasharray: none; stroke-linecap: butt; stroke-linejoin: miter; stroke-miterlimit: 10; fill: #43B05C; fill-rule: nonzero; opacity: 1;" transform="  matrix(1 0 0 1 0 0) "/>
</g>
  <g transform="translate(188.93 96.56) scale(3.24 3.24)">
   <text font-family="Amerika Sans" font-size="40" font-weight="normal" style="stroke: none; stroke-width: 1; stroke-dasharray: none; stroke-linecap: butt; stroke-linejoin: miter; stroke-miterlimit: 10; fill: #ba8b2c; fill-rule: nonzero; opacity: 1;" ><tspan x="-54.72" y="8.98" style="stroke: none; stroke-width: 0; stroke-dasharray: none; stroke-linecap: butt; stroke-linejoin: miter; stroke-miterlimit: 4; fill: #ba8b2c; fill-rule: ; opacity: 1;">S</tspan><tspan x="-31.29" y="8.98" style="stroke: none; stroke-width: 0; stroke-dasharray: none; stroke-linecap: butt; stroke-linejoin: miter; stroke-miterlimit: 4; fill: #ba8b2c; fill-rule: ; opacity: 1;">p</tspan><tspan x="-7.53" y="8.98" style="stroke: none; stroke-width: 0; stroke-dasharray: none; stroke-linecap: butt; stroke-linejoin: miter; stroke-miterlimit: 4; fill: #ba8b2c; fill-rule: ; opacity: 1;">i</tspan><tspan x="1.84" y="8.98" style="stroke: none; stroke-width: 0; stroke-dasharray: none; stroke-linecap: butt; stroke-linejoin: miter; stroke-miterlimit: 4; fill: #ba8b2c; fill-rule: ; opacity: 1;">r</tspan><tspan x="17.61" y="8.98" style="stroke: none; stroke-width: 0; stroke-dasharray: none; stroke-linecap: butt; stroke-linejoin: miter; stroke-miterlimit: 4; fill: #ba8b2c; fill-rule: ; opacity: 1;">a</tspan><tspan x="41.44" y="8.98" style="stroke: none; stroke-width: 0; stroke-dasharray: none; stroke-linecap: butt; stroke-linejoin: miter; stroke-miterlimit: 4; fill: #ba8b2c; fill-rule: ; opacity: 1;">l</tspan></text>
 </g>
</svg>