<?xml version="1.0" encoding="UTF-8" standalone="no" ?>
<!DOCTYPE svg PUBLIC "-//W3C//DTD SVG 1.1//EN" "http://www.w3.org/Graphics/SVG/1.1/DTD/svg11.dtd">
<svg xmlns="http://www.w3.org/2000/svg" xmlns:xlink="http://www.w3.org/1999/xlink" version="1.1" width="592.6949883460999" height="198.70824" xml:space="preserve">
<desc>Created with Fabric.js 1.6.0-rc.1</desc>
<defs></defs>
  <g transform="translate(297.76 116.19) scale(2.82 2.82)">
   <text font-family="Walkway Bold" font-size="40" font-style="italic" font-weight="bold" style="stroke: none; stroke-width: 1; stroke-dasharray: none; stroke-linecap: butt; stroke-linejoin: miter; stroke-miterlimit: 10; fill: #2a48a8; fill-rule: nonzero; opacity: 1;" ><tspan x="-101.54" y="8.98" style="stroke: none; stroke-width: 0; stroke-dasharray: none; stroke-linecap: butt; stroke-linejoin: miter; stroke-miterlimit: 4; fill: #2a48a8; fill-rule: ; opacity: 1;">I</tspan><tspan x="-95.37" y="8.98" style="stroke: none; stroke-width: 0; stroke-dasharray: none; stroke-linecap: butt; stroke-linejoin: miter; stroke-miterlimit: 4; fill: #2a48a8; fill-rule: ; opacity: 1;">n</tspan><tspan x="-73.57" y="8.98" style="stroke: none; stroke-width: 0; stroke-dasharray: none; stroke-linecap: butt; stroke-linejoin: miter; stroke-miterlimit: 4; fill: #2a48a8; fill-rule: ; opacity: 1;">c</tspan><tspan x="-51.77" y="8.98" style="stroke: none; stroke-width: 0; stroke-dasharray: none; stroke-linecap: butt; stroke-linejoin: miter; stroke-miterlimit: 4; fill: #2a48a8; fill-rule: ; opacity: 1;">r</tspan><tspan x="-38.26" y="8.98" style="stroke: none; stroke-width: 0; stroke-dasharray: none; stroke-linecap: butt; stroke-linejoin: miter; stroke-miterlimit: 4; fill: #2a48a8; fill-rule: ; opacity: 1;">e</tspan><tspan x="-16.46" y="8.98" style="stroke: none; stroke-width: 0; stroke-dasharray: none; stroke-linecap: butt; stroke-linejoin: miter; stroke-miterlimit: 4; fill: #2a48a8; fill-rule: ; opacity: 1;">m</tspan><tspan x="17.02" y="8.98" style="stroke: none; stroke-width: 0; stroke-dasharray: none; stroke-linecap: butt; stroke-linejoin: miter; stroke-miterlimit: 4; fill: #2a48a8; fill-rule: ; opacity: 1;">e</tspan><tspan x="38.82" y="8.98" style="stroke: none; stroke-width: 0; stroke-dasharray: none; stroke-linecap: butt; stroke-linejoin: miter; stroke-miterlimit: 4; fill: #2a48a8; fill-rule: ; opacity: 1;">n</tspan><tspan x="60.62" y="8.98" style="stroke: none; stroke-width: 0; stroke-dasharray: none; stroke-linecap: butt; stroke-linejoin: miter; stroke-miterlimit: 4; fill: #2a48a8; fill-rule: ; opacity: 1;">t</tspan><tspan x="71.94" y="8.98" style="stroke: none; stroke-width: 0; stroke-dasharray: none; stroke-linecap: butt; stroke-linejoin: miter; stroke-miterlimit: 4; fill: #2a48a8; fill-rule: ; opacity: 1;">a</tspan><tspan x="95.31" y="8.98" style="stroke: none; stroke-width: 0; stroke-dasharray: none; stroke-linecap: butt; stroke-linejoin: miter; stroke-miterlimit: 4; fill: #2a48a8; fill-rule: ; opacity: 1;">l</tspan></text>
 </g>
<g style="stroke: none; stroke-width: 1; stroke-dasharray: none; stroke-linecap: butt; stroke-linejoin: miter; stroke-miterlimit: 10; fill: none; fill-rule: nonzero; opacity: 1;" transform="translate(53.99 10) scale(0.18 0.18)" >
  <path d="M 451.712 400.579 c -9.024 0 -16.34 -7.316 -16.34 -16.34 v -54.071 c 0 -9.024 7.316 -16.34 16.34 -16.34 c 9.024 0 16.34 7.316 16.34 16.34 v 54.071 C 468.051 393.263 460.735 400.579 451.712 400.579 z" style="stroke: none; stroke-width: 1; stroke-dasharray: none; stroke-linecap: butt; stroke-linejoin: miter; stroke-miterlimit: 10; fill: #50BF94; fill-rule: nonzero; opacity: 0;" transform=" matrix(1 0 0 1 0 0) " stroke-linecap="round" />
  <path d="M 284.371 427.799 c -0.351 0 -0.7 -0.001 -1.051 -0.005 c -57.621 -0.558 -104.5 -48.408 -104.5 -106.669 V 189.74 c 0 -3.379 -2.839 -6.161 -6.278 -6.026 c -3.191 0.121 -5.786 3.071 -5.786 6.577 v 65.706 c 0 27.394 -22.274 49.716 -49.653 49.757 c -0.208 0.002 -0.462 0 -0.72 -0.003 H 88.187 c -14.71 0 -28.581 -6.453 -38.058 -17.704 l 0 0 L 3.861 233.111 c -8.928 -10.601 -1.379 -26.866 12.498 -26.866 h 50.893 V 189.74 c 0 -58.353 47.376 -105.537 105.527 -105.537 c 58.209 0 105.549 48.152 105.549 106.674 v 131.385 c 0 3.385 2.844 6.16 6.278 6.026 c 3.19 -0.121 5.785 -3.071 5.785 -6.576 V 189.74 c 0 -58.353 47.376 -105.537 105.527 -105.537 c 58.209 0 105.549 48.152 105.549 106.674 v 47.554 c 6.825 11.431 10.536 25.09 10.536 39.047 c 0 38.063 -27.045 69.03 -60.289 69.03 s -60.29 -30.967 -60.29 -69.03 c 0 -13.956 3.711 -27.615 10.536 -39.047 V 189.74 c 0 -3.347 -2.804 -6.161 -6.278 -6.026 c -3.191 0.121 -5.786 3.071 -5.786 6.577 v 131.971 C 389.895 380.513 342.629 427.799 284.371 427.799 z" style="stroke: none; stroke-width: 1; stroke-dasharray: none; stroke-linecap: butt; stroke-linejoin: miter; stroke-miterlimit: 10; fill: #84d994; fill-rule: nonzero; opacity: 1;" transform=" matrix(1 0 0 1 0 0) " stroke-linecap="round" />
  <path d="M 501.464 238.433 v -47.554 c 0 -58.522 -47.339 -106.674 -105.549 -106.674 c -58.151 0 -105.527 47.184 -105.527 105.537 v 131.973 c 0 3.505 -2.596 6.455 -5.785 6.576 c -0.12 0.004 -0.237 -0.002 -0.356 -0.004 v 99.514 c 0.041 0 0.083 0 0.123 0 c 58.232 0 105.524 -47.264 105.524 -105.537 V 190.291 c 0 -3.507 2.596 -6.456 5.786 -6.577 c 3.474 -0.135 6.278 2.679 6.278 6.026 v 48.692 c -6.825 11.431 -10.536 25.09 -10.536 39.047 c 0 38.063 27.046 69.03 60.29 69.03 S 512 315.541 512 277.478 C 512 263.523 508.288 249.864 501.464 238.433 z" style="stroke: none; stroke-width: 1; stroke-dasharray: none; stroke-linecap: butt; stroke-linejoin: miter; stroke-miterlimit: 10; fill: #84d999; fill-rule: nonzero; opacity: 1;" transform=" matrix(1 0 0 1 0 0) " stroke-linecap="round" />
  <circle cx="420.882" cy="285.512" r="17.812" style="stroke: none; stroke-width: 1; stroke-dasharray: none; stroke-linecap: butt; stroke-linejoin: miter; stroke-miterlimit: 10; fill: #3E9473; fill-rule: nonzero; opacity: 0;" transform="  matrix(1 0 0 1 0 0) "/>
  <circle cx="482.552" cy="285.512" r="17.812" style="stroke: none; stroke-width: 1; stroke-dasharray: none; stroke-linecap: butt; stroke-linejoin: miter; stroke-miterlimit: 10; fill: #3E9473; fill-rule: nonzero; opacity: 0;" transform="  matrix(1 0 0 1 0 0) "/>
</g>
<g style="stroke: none; stroke-width: 1; stroke-dasharray: none; stroke-linecap: butt; stroke-linejoin: miter; stroke-miterlimit: 10; fill: none; fill-rule: nonzero; opacity: 1;" transform="translate(10 103.86000000000003) scale(1.11 0.11)" >
  <path d="M 216.204 449.808 H 68.67 c -13.851 0 -21.682 -15.965 -13.201 -26.917 c 36.272 -46.848 35.145 -111.45 -0.008 -156.672 c -22.061 -28.498 -33.722 -62.653 -33.722 -98.773 c 0 -72.711 45.982 -105.256 91.552 -105.256 c 53.496 0 93.114 45.646 89.67 96.447 c -2.075 30.608 6.656 61.37 26.451 87.141 c 45.024 58.16 45.02 139.398 -0.008 197.553 C 226.243 447.418 221.369 449.808 216.204 449.808 z" style="stroke: none; stroke-width: 1; stroke-dasharray: none; stroke-linecap: butt; stroke-linejoin: miter; stroke-miterlimit: 10; fill: #B9F291; fill-rule: nonzero; opacity: 0;" transform=" matrix(1 0 0 1 0 0) " stroke-linecap="round" />
  <path d="M 132.216 446.314 c -7.29 -5.644 -8.625 -16.131 -2.98 -23.423 c 35.667 -46.066 35.761 -110.585 -0.007 -156.671 c -22.062 -28.498 -33.723 -62.652 -33.723 -98.773 c 0 -9.22 7.475 -16.696 16.696 -16.696 s 16.696 7.475 16.696 16.696 c 0 27.738 8.711 55.091 26.749 78.332 c 45.024 58.161 45.021 139.399 -0.008 197.555 C 149.993 450.625 139.506 451.959 132.216 446.314 z" style="stroke: none; stroke-width: 1; stroke-dasharray: none; stroke-linecap: butt; stroke-linejoin: miter; stroke-miterlimit: 10; fill: #84D993; fill-rule: nonzero; opacity: 0;" transform=" matrix(1 0 0 1 0 0) " stroke-linecap="round" />
  <path d="M 443.331 449.808 H 295.796 c -13.852 0 -21.681 -15.965 -13.201 -26.918 c 35.218 -45.486 36.218 -109.712 -0.008 -156.672 c -22.061 -28.498 -33.722 -62.652 -33.722 -98.771 c 0 -72.711 45.982 -105.256 91.552 -105.256 c 53.504 0 93.114 45.656 89.67 96.447 c -2.193 32.334 7.859 63.211 26.452 87.14 c 45.024 58.161 45.02 139.398 -0.008 197.554 C 453.369 447.418 448.495 449.808 443.331 449.808 z" style="stroke: none; stroke-width: 1; stroke-dasharray: none; stroke-linecap: butt; stroke-linejoin: miter; stroke-miterlimit: 10; fill: #84D993; fill-rule: nonzero; opacity: 0;" transform=" matrix(1 0 0 1 0 0) " stroke-linecap="round" />
  <path d="M 359.342 446.314 c -7.29 -5.644 -8.625 -16.131 -2.98 -23.423 c 35.728 -46.143 35.699 -110.664 -0.008 -156.671 c -22.062 -28.498 -33.723 -62.653 -33.723 -98.773 c 0 -9.22 7.475 -16.696 16.696 -16.696 c 9.22 0 16.696 7.475 16.696 16.696 c 0 27.74 8.711 55.09 26.749 78.332 c 45.024 58.162 45.022 139.399 -0.008 197.555 C 377.121 450.622 366.637 451.962 359.342 446.314 z" style="stroke: none; stroke-width: 1; stroke-dasharray: none; stroke-linecap: butt; stroke-linejoin: miter; stroke-miterlimit: 10; fill: #50BF94; fill-rule: nonzero; opacity: 0;" transform=" matrix(1 0 0 1 0 0) " stroke-linecap="round" />
  <path d="M 495.304 449.808 H 16.696 C 7.475 449.808 0 442.333 0 433.112 s 7.475 -16.696 16.696 -16.696 h 478.609 c 9.22 0 16.696 7.475 16.696 16.696 S 504.525 449.808 495.304 449.808 z" style="stroke: none; stroke-width: 1; stroke-dasharray: none; stroke-linecap: butt; stroke-linejoin: miter; stroke-miterlimit: 10; fill: #84d994; fill-rule: nonzero; opacity: 1;" transform=" matrix(1 0 0 1 0 0) " stroke-linecap="round" />
  <path d="M 495.304 416.418 H 256 v 33.391 h 239.304 c 9.22 0 16.696 -7.475 16.696 -16.696 C 512 423.893 504.525 416.418 495.304 416.418 z" style="stroke: none; stroke-width: 1; stroke-dasharray: none; stroke-linecap: butt; stroke-linejoin: miter; stroke-miterlimit: 10; fill: #84d994; fill-rule: nonzero; opacity: 1;" transform=" matrix(1 0 0 1 0 0) " stroke-linecap="round" />
</g>
</svg>