<?xml version="1.0" encoding="UTF-8" standalone="no" ?>
<!DOCTYPE svg PUBLIC "-//W3C//DTD SVG 1.1//EN" "http://www.w3.org/Graphics/SVG/1.1/DTD/svg11.dtd">
<svg xmlns="http://www.w3.org/2000/svg" xmlns:xlink="http://www.w3.org/1999/xlink" version="1.1" width="578.6600000000001" height="419.3262" xml:space="preserve">
<desc>Created with Fabric.js 1.6.0-rc.1</desc>
<defs></defs>
<g style="stroke: none; stroke-width: 1; stroke-dasharray: none; stroke-linecap: butt; stroke-linejoin: miter; stroke-miterlimit: 10; fill: none; fill-rule: nonzero; opacity: 1;" transform="translate(42.33000000000004 98.56999999999998) scale(1.03 0.42)" >
  <path d="M 255 0 C 114.75 0 0 114.75 0 255 s 114.75 255 255 255 s 255 -114.75 255 -255 S 395.25 0 255 0 z" style="stroke: none; stroke-width: 1; stroke-dasharray: none; stroke-linecap: butt; stroke-linejoin: miter; stroke-miterlimit: 10; fill: #fffff1; fill-rule: nonzero; opacity: 1;" transform=" matrix(1 0 0 1 0 0) " stroke-linecap="round" />
</g>
  <g transform="translate(287.34 212.6) rotate(359.58) scale(3.55 3.67)">
   <text font-family="Kandide" font-size="40" font-style="italic" font-weight="bold" style="stroke: none; stroke-width: 1; stroke-dasharray: none; stroke-linecap: butt; stroke-linejoin: miter; stroke-miterlimit: 10; fill: #b3b3b3; fill-rule: nonzero; opacity: 1;" ><tspan x="-56.87" y="8.98" style="stroke: none; stroke-width: 0; stroke-dasharray: none; stroke-linecap: butt; stroke-linejoin: miter; stroke-miterlimit: 4; fill: #b3b3b3; fill-rule: ; opacity: 1;">s</tspan><tspan x="-41.9" y="8.98" style="stroke: none; stroke-width: 0; stroke-dasharray: none; stroke-linecap: butt; stroke-linejoin: miter; stroke-miterlimit: 4; fill: #b3b3b3; fill-rule: ; opacity: 1;"> </tspan><tspan x="-29.27" y="8.98" style="stroke: none; stroke-width: 0; stroke-dasharray: none; stroke-linecap: butt; stroke-linejoin: miter; stroke-miterlimit: 4; fill: #b3b3b3; fill-rule: ; opacity: 1;">C</tspan><tspan x="-14.55" y="8.98" style="stroke: none; stroke-width: 0; stroke-dasharray: none; stroke-linecap: butt; stroke-linejoin: miter; stroke-miterlimit: 4; fill: #b3b3b3; fill-rule: ; opacity: 1;">e</tspan><tspan x="0.48" y="8.98" style="stroke: none; stroke-width: 0; stroke-dasharray: none; stroke-linecap: butt; stroke-linejoin: miter; stroke-miterlimit: 4; fill: #b3b3b3; fill-rule: ; opacity: 1;">M</tspan><tspan x="23.2" y="8.98" style="stroke: none; stroke-width: 0; stroke-dasharray: none; stroke-linecap: butt; stroke-linejoin: miter; stroke-miterlimit: 4; fill: #b3b3b3; fill-rule: ; opacity: 1;">e</tspan><tspan x="38.23" y="8.98" style="stroke: none; stroke-width: 0; stroke-dasharray: none; stroke-linecap: butt; stroke-linejoin: miter; stroke-miterlimit: 4; fill: #b3b3b3; fill-rule: ; opacity: 1;">t</tspan><tspan x="49.75" y="8.98" style="stroke: none; stroke-width: 0; stroke-dasharray: none; stroke-linecap: butt; stroke-linejoin: miter; stroke-miterlimit: 4; fill: #b3b3b3; fill-rule: ; opacity: 1;">.</tspan></text>
 </g>
  <g transform="translate(287.48 215.15) scale(3.56 3.49)">
   <text font-family="Kandide" font-size="40" font-weight="bold" style="stroke: none; stroke-width: 1; stroke-dasharray: none; stroke-linecap: butt; stroke-linejoin: miter; stroke-miterlimit: 10; fill: #0a4f4c; fill-rule: nonzero; opacity: 1;" ><tspan x="-56.87" y="8.98" style="stroke: none; stroke-width: 0; stroke-dasharray: none; stroke-linecap: butt; stroke-linejoin: miter; stroke-miterlimit: 4; fill: #0a4f4c; fill-rule: ; opacity: 1;">s</tspan><tspan x="-41.9" y="8.98" style="stroke: none; stroke-width: 0; stroke-dasharray: none; stroke-linecap: butt; stroke-linejoin: miter; stroke-miterlimit: 4; fill: #0a4f4c; fill-rule: ; opacity: 1;"> </tspan><tspan x="-29.27" y="8.98" style="stroke: none; stroke-width: 0; stroke-dasharray: none; stroke-linecap: butt; stroke-linejoin: miter; stroke-miterlimit: 4; fill: #0a4f4c; fill-rule: ; opacity: 1;">C</tspan><tspan x="-14.55" y="8.98" style="stroke: none; stroke-width: 0; stroke-dasharray: none; stroke-linecap: butt; stroke-linejoin: miter; stroke-miterlimit: 4; fill: #0a4f4c; fill-rule: ; opacity: 1;">e</tspan><tspan x="0.48" y="8.98" style="stroke: none; stroke-width: 0; stroke-dasharray: none; stroke-linecap: butt; stroke-linejoin: miter; stroke-miterlimit: 4; fill: #0a4f4c; fill-rule: ; opacity: 1;">M</tspan><tspan x="23.2" y="8.98" style="stroke: none; stroke-width: 0; stroke-dasharray: none; stroke-linecap: butt; stroke-linejoin: miter; stroke-miterlimit: 4; fill: #0a4f4c; fill-rule: ; opacity: 1;">e</tspan><tspan x="38.23" y="8.98" style="stroke: none; stroke-width: 0; stroke-dasharray: none; stroke-linecap: butt; stroke-linejoin: miter; stroke-miterlimit: 4; fill: #0a4f4c; fill-rule: ; opacity: 1;">t</tspan><tspan x="49.75" y="8.98" style="stroke: none; stroke-width: 0; stroke-dasharray: none; stroke-linecap: butt; stroke-linejoin: miter; stroke-miterlimit: 4; fill: #0a4f4c; fill-rule: ; opacity: 1;">.</tspan></text>
 </g>
<g style="stroke: none; stroke-width: 1; stroke-dasharray: none; stroke-linecap: butt; stroke-linejoin: miter; stroke-miterlimit: 10; fill: none; fill-rule: nonzero; opacity: 1;" transform="translate(159.06000000000003 305.74) rotate(240.94) scale(0.26 0.26)" >
  <path d="M 395.41 292.775 c 9.76 9.76 9.76 25.59 0 35.35 c -4.88 4.89 -11.28 7.33 -17.68 7.33 c -6.4 0 -12.8 -2.44 -17.68 -7.33 l -7.77 -7.77 v -0.01 l 35.35 -35.35 L 395.41 292.775 z" style="stroke: none; stroke-width: 1; stroke-dasharray: none; stroke-linecap: butt; stroke-linejoin: miter; stroke-miterlimit: 10; fill: #b3b3b3; fill-rule: nonzero; opacity: 1;" transform=" matrix(1 0 0 1 0 0) " stroke-linecap="round" />
  <polygon points="302,199.37 387.63,285 352.28,320.35 352.28,320.36 302,270.07 191.76,159.84 179.74,112.45 227.12,124.47 302,199.35 " style="stroke: none; stroke-width: 1; stroke-dasharray: none; stroke-linecap: butt; stroke-linejoin: miter; stroke-miterlimit: 10; fill: #b3b3b3; fill-rule: nonzero; opacity: 1;" transform="  matrix(1 0 0 1 0 0) "/>
  <path d="M 44 360.365 l -14.42 37 h -1.56 c -15.48 0 -28.02 -12.54 -28.02 -28.02 v -8.98 H 44 z" style="stroke: none; stroke-width: 1; stroke-dasharray: none; stroke-linecap: butt; stroke-linejoin: miter; stroke-miterlimit: 10; fill: #CCCCCC; fill-rule: nonzero; opacity: 0;" transform=" matrix(1 0 0 1 0 0) " stroke-linecap="round" />
  <path d="M 182.43 5.365 l -14.42 37 H 0 v -8.98 c 0 -15.48 12.54 -28.02 28.02 -28.02 H 182.43 z" style="stroke: none; stroke-width: 1; stroke-dasharray: none; stroke-linecap: butt; stroke-linejoin: miter; stroke-miterlimit: 10; fill: #CCCCCC; fill-rule: nonzero; opacity: 0;" transform=" matrix(1 0 0 1 0 0) " stroke-linecap="round" />
  <path d="M 302 33.385 v 8.98 H 168.01 l 14.42 -37 h 91.55 C 289.46 5.365 302 17.905 302 33.385 z" style="stroke: none; stroke-width: 1; stroke-dasharray: none; stroke-linecap: butt; stroke-linejoin: miter; stroke-miterlimit: 10; fill: #999999; fill-rule: nonzero; opacity: 0;" transform=" matrix(1 0 0 1 0 0) " stroke-linecap="round" />
  <path d="M 302 360.365 v 8.98 c 0 15.48 -12.54 28.02 -28.02 28.02 H 29.58 l 14.42 -37 H 302 z" style="stroke: none; stroke-width: 1; stroke-dasharray: none; stroke-linecap: butt; stroke-linejoin: miter; stroke-miterlimit: 10; fill: #999999; fill-rule: nonzero; opacity: 0;" transform=" matrix(1 0 0 1 0 0) " stroke-linecap="round" />
  <polygon points="302,270.07 302,360.37 44,360.37 168.01,42.37 302,42.37 302,199.35 227.12,124.47 179.74,112.45 191.76,159.84 " style="stroke: none; stroke-width: 1; stroke-dasharray: none; stroke-linecap: butt; stroke-linejoin: miter; stroke-miterlimit: 10; fill: #1A1A1A; fill-rule: nonzero; opacity: 0;" transform="  matrix(1 0 0 1 0 0) "/>
  <polygon points="168.01,42.37 44,360.37 0,360.37 0,42.37 " style="stroke: none; stroke-width: 1; stroke-dasharray: none; stroke-linecap: butt; stroke-linejoin: miter; stroke-miterlimit: 10; fill: #4D4D4D; fill-rule: nonzero; opacity: 0;" transform="  matrix(1 0 0 1 0 0) "/>
</g>
  <g transform="translate(10.5 36.72)">
   <text font-family="undefined" font-size="40" font-weight="normal" style="stroke: none; stroke-width: 1; stroke-dasharray: none; stroke-linecap: butt; stroke-linejoin: miter; stroke-miterlimit: 10; fill: #000000; fill-rule: nonzero; opacity: 1;" ><tspan x="0" y="8.98" fill="#000000"></tspan></text>
 </g>
<g style="stroke: none; stroke-width: 1; stroke-dasharray: none; stroke-linecap: butt; stroke-linejoin: miter; stroke-miterlimit: 10; fill: none; fill-rule: nonzero; opacity: 1;" transform="translate(174.68000000000004 305.75) rotate(225.22) scale(0.26 0.26)" >
  <path d="M 395.41 292.775 c 9.76 9.76 9.76 25.59 0 35.35 c -4.88 4.89 -11.28 7.33 -17.68 7.33 c -6.4 0 -12.8 -2.44 -17.68 -7.33 l -7.77 -7.77 v -0.01 l 35.35 -35.35 L 395.41 292.775 z" style="stroke: none; stroke-width: 1; stroke-dasharray: none; stroke-linecap: butt; stroke-linejoin: miter; stroke-miterlimit: 10; fill: #eb414a; fill-rule: nonzero; opacity: 1;" transform=" matrix(1 0 0 1 0 0) " stroke-linecap="round" />
  <polygon points="302,199.37 387.63,285 352.28,320.35 352.28,320.36 302,270.07 191.76,159.84 179.74,112.45 227.12,124.47 302,199.35 " style="stroke: none; stroke-width: 1; stroke-dasharray: none; stroke-linecap: butt; stroke-linejoin: miter; stroke-miterlimit: 10; fill: #f7e11e; fill-rule: nonzero; opacity: 1;" transform="  matrix(1 0 0 1 0 0) "/>
  <path d="M 44 360.365 l -14.42 37 h -1.56 c -15.48 0 -28.02 -12.54 -28.02 -28.02 v -8.98 H 44 z" style="stroke: none; stroke-width: 1; stroke-dasharray: none; stroke-linecap: butt; stroke-linejoin: miter; stroke-miterlimit: 10; fill: #CCCCCC; fill-rule: nonzero; opacity: 0;" transform=" matrix(1 0 0 1 0 0) " stroke-linecap="round" />
  <path d="M 182.43 5.365 l -14.42 37 H 0 v -8.98 c 0 -15.48 12.54 -28.02 28.02 -28.02 H 182.43 z" style="stroke: none; stroke-width: 1; stroke-dasharray: none; stroke-linecap: butt; stroke-linejoin: miter; stroke-miterlimit: 10; fill: #CCCCCC; fill-rule: nonzero; opacity: 0;" transform=" matrix(1 0 0 1 0 0) " stroke-linecap="round" />
  <path d="M 302 33.385 v 8.98 H 168.01 l 14.42 -37 h 91.55 C 289.46 5.365 302 17.905 302 33.385 z" style="stroke: none; stroke-width: 1; stroke-dasharray: none; stroke-linecap: butt; stroke-linejoin: miter; stroke-miterlimit: 10; fill: #999999; fill-rule: nonzero; opacity: 0;" transform=" matrix(1 0 0 1 0 0) " stroke-linecap="round" />
  <path d="M 302 360.365 v 8.98 c 0 15.48 -12.54 28.02 -28.02 28.02 H 29.58 l 14.42 -37 H 302 z" style="stroke: none; stroke-width: 1; stroke-dasharray: none; stroke-linecap: butt; stroke-linejoin: miter; stroke-miterlimit: 10; fill: #999999; fill-rule: nonzero; opacity: 0;" transform=" matrix(1 0 0 1 0 0) " stroke-linecap="round" />
  <polygon points="302,270.07 302,360.37 44,360.37 168.01,42.37 302,42.37 302,199.35 227.12,124.47 179.74,112.45 191.76,159.84 " style="stroke: none; stroke-width: 1; stroke-dasharray: none; stroke-linecap: butt; stroke-linejoin: miter; stroke-miterlimit: 10; fill: #1A1A1A; fill-rule: nonzero; opacity: 0;" transform="  matrix(1 0 0 1 0 0) "/>
  <polygon points="168.01,42.37 44,360.37 0,360.37 0,42.37 " style="stroke: none; stroke-width: 1; stroke-dasharray: none; stroke-linecap: butt; stroke-linejoin: miter; stroke-miterlimit: 10; fill: #4D4D4D; fill-rule: nonzero; opacity: 0;" transform="  matrix(1 0 0 1 0 0) "/>
</g>
<g style="stroke: none; stroke-width: 1; stroke-dasharray: none; stroke-linecap: butt; stroke-linejoin: miter; stroke-miterlimit: 10; fill: none; fill-rule: nonzero; opacity: 1;" transform="translate(451.34000000000003 211.44) scale(0.15 0.14) matrix(-1 0 0 1 513 0) " >
  <path d="M 502.856 188.034 c -11.36 -41.407 -33.296 -80.519 -65.829 -113.052 c -99.976 -99.976 -262.07 -99.976 -362.045 0 s -99.976 262.07 0 362.045 c 32.533 32.533 71.646 54.469 113.052 65.829 L 502.856 188.034 z" style="stroke: none; stroke-width: 1; stroke-dasharray: none; stroke-linecap: butt; stroke-linejoin: miter; stroke-miterlimit: 10; fill: #FF9356; fill-rule: nonzero; opacity: 0;" transform=" matrix(1 0 0 1 0 0) " stroke-linecap="round" />
  <path d="M 437.028 437.028 c 67.444 -67.444 89.379 -163.153 65.829 -248.993 l -89.44 -89.44 l -157.412 157.41 L 122.206 437.028 l 65.829 65.829 C 273.875 526.407 369.584 504.47 437.028 437.028 z" style="stroke: none; stroke-width: 1; stroke-dasharray: none; stroke-linecap: butt; stroke-linejoin: miter; stroke-miterlimit: 10; fill: #FF4181; fill-rule: nonzero; opacity: 0;" transform=" matrix(1 0 0 1 0 0) " stroke-linecap="round" />
  <polygon points="98.59,413.42 122.21,437.03 193.04,366.19 169.43,326.84 " style="stroke: none; stroke-width: 1; stroke-dasharray: none; stroke-linecap: butt; stroke-linejoin: miter; stroke-miterlimit: 10; fill: #092A40; fill-rule: nonzero; opacity: 1;" transform="  matrix(1 0 0 1 0 0) "/>
  <polygon points="200.91,342.58 240.26,303.23 216.65,279.62 169.43,326.84 " style="stroke: none; stroke-width: 1; stroke-dasharray: none; stroke-linecap: butt; stroke-linejoin: miter; stroke-miterlimit: 10; fill: #45A2E0; fill-rule: nonzero; opacity: 1;" transform="  matrix(1 0 0 1 0 0) "/>
  <polygon points="224.52,287.49 208.78,271.75 169.43,311.1 177.3,334.71 " style="stroke: none; stroke-width: 1; stroke-dasharray: none; stroke-linecap: butt; stroke-linejoin: miter; stroke-miterlimit: 10; fill: #7ACBFF; fill-rule: nonzero; opacity: 1;" transform="  matrix(1 0 0 1 0 0) "/>
  <polygon points="145.82,318.97 74.98,389.8 98.59,413.42 177.3,334.71 " style="stroke: none; stroke-width: 1; stroke-dasharray: none; stroke-linecap: butt; stroke-linejoin: miter; stroke-miterlimit: 10; fill: #395D74; fill-rule: nonzero; opacity: 1;" transform="  matrix(1 0 0 1 0 0) "/>
  <rect x="166.16" y="301.32" rx="0" ry="0" width="22.26" height="66.78" style="stroke: none; stroke-width: 1; stroke-dasharray: none; stroke-linecap: butt; stroke-linejoin: miter; stroke-miterlimit: 10; fill: #FFFFFF; fill-rule: nonzero; opacity: 1;" transform=" matrix(-0.7071 0.7071 -0.7071 -0.7071 539.3365 446.0138) "/>
  <path d="M 413.415 98.594 l -133.799 70.835 l -70.835 133.799 c 56.508 56.508 148.126 56.508 204.634 0 S 469.923 155.102 413.415 98.594 z" style="stroke: none; stroke-width: 1; stroke-dasharray: none; stroke-linecap: butt; stroke-linejoin: miter; stroke-miterlimit: 10; fill: #092A40; fill-rule: nonzero; opacity: 1;" transform=" matrix(1 0 0 1 0 0) " stroke-linecap="round" />
  <path d="M 208.782 98.594 c -56.508 56.508 -56.508 148.126 0 204.634 L 413.415 98.594 C 356.907 42.086 265.29 42.086 208.782 98.594 z" style="stroke: none; stroke-width: 1; stroke-dasharray: none; stroke-linecap: butt; stroke-linejoin: miter; stroke-miterlimit: 10; fill: #395D74; fill-rule: nonzero; opacity: 1;" transform=" matrix(1 0 0 1 0 0) " stroke-linecap="round" />
  <path d="M 311.098 89.604 c -61.473 0 -111.306 49.833 -111.306 111.306 c 0 0 18.888 100.176 111.306 100.176 L 422.404 200.91 C 422.404 139.438 372.572 89.604 311.098 89.604 z" style="stroke: none; stroke-width: 1; stroke-dasharray: none; stroke-linecap: butt; stroke-linejoin: miter; stroke-miterlimit: 10; fill: #FFFFFF; fill-rule: nonzero; opacity: 1;" transform=" matrix(1 0 0 1 0 0) " stroke-linecap="round" />
  <path d="M 400.143 200.91 c 0 -49.178 -39.867 -89.045 -89.045 -89.045 v 178.09 c -49.178 0 -89.045 -39.867 -89.045 -89.045 h -22.261 c 0 61.473 49.833 111.306 111.306 111.306 s 111.306 -49.833 111.306 -111.306 L 400.143 200.91 L 400.143 200.91 z" style="stroke: none; stroke-width: 1; stroke-dasharray: none; stroke-linecap: butt; stroke-linejoin: miter; stroke-miterlimit: 10; fill: #C7E9FF; fill-rule: nonzero; opacity: 1;" transform=" matrix(1 0 0 1 0 0) " stroke-linecap="round" />
</g>
</svg>