<?xml version="1.0" encoding="UTF-8" standalone="no" ?>
<!DOCTYPE svg PUBLIC "-//W3C//DTD SVG 1.1//EN" "http://www.w3.org/Graphics/SVG/1.1/DTD/svg11.dtd">
<svg xmlns="http://www.w3.org/2000/svg" xmlns:xlink="http://www.w3.org/1999/xlink" version="1.1" width="420.1722" height="252.82219999999998" xml:space="preserve">
<desc>Created with Fabric.js 1.6.0-rc.1</desc>
<defs></defs>
<g style="stroke: none; stroke-width: 1; stroke-dasharray: none; stroke-linecap: butt; stroke-linejoin: miter; stroke-miterlimit: 10; fill: none; fill-rule: nonzero; opacity: 1;" transform="translate(177.35000000000002 10) scale(0.57 0.57)" >
  <path d="M 99.57 28.61 l 35.04 55.53 c -20.91 12.12 -38.36 29.56 -50.47 50.48 L 28.6 99.58 C 45.97 70.42 70.42 45.98 99.57 28.61 z" style="stroke: none; stroke-width: 1; stroke-dasharray: none; stroke-linecap: butt; stroke-linejoin: miter; stroke-miterlimit: 10; fill: #B9E0EF; fill-rule: nonzero; opacity: 1;" transform=" matrix(1 0 0 1 0 0) " stroke-linecap="round" />
  <path d="M 6.23 153.54 l 64.06 14.5 c -3.04 11.38 -4.67 23.35 -4.67 35.69 c 0 12.35 1.63 24.31 4.67 35.69 l -64.06 14.5 C 2.16 237.86 0 221.05 0 203.73 S 2.16 169.6 6.23 153.54 z" style="stroke: none; stroke-width: 1; stroke-dasharray: none; stroke-linecap: butt; stroke-linejoin: miter; stroke-miterlimit: 10; fill: #B3D2E2; fill-rule: nonzero; opacity: 1;" transform=" matrix(1 0 0 1 0 0) " stroke-linecap="round" />
  <path d="M 134.61 323.32 l -35.04 55.53 c -29.15 -17.37 -53.6 -41.81 -70.97 -70.97 l 55.54 -35.04 C 96.25 293.76 113.7 311.21 134.61 323.32 z" style="stroke: none; stroke-width: 1; stroke-dasharray: none; stroke-linecap: butt; stroke-linejoin: miter; stroke-miterlimit: 10; fill: #A1C2D6; fill-rule: nonzero; opacity: 1;" transform=" matrix(1 0 0 1 0 0) " stroke-linecap="round" />
  <path d="M 401.23 153.55 c 4.07 16.05 6.23 32.86 6.23 50.18 s -2.16 34.13 -6.23 50.18 l -64.06 -14.49 c 3.03 -11.38 4.66 -23.34 4.66 -35.69 c 0 -12.34 -1.63 -24.31 -4.66 -35.69 L 401.23 153.55 z" style="stroke: none; stroke-width: 1; stroke-dasharray: none; stroke-linecap: butt; stroke-linejoin: miter; stroke-miterlimit: 10; fill: #D38D7F; fill-rule: nonzero; opacity: 1;" transform=" matrix(1 0 0 1 0 0) " stroke-linecap="round" />
  <path d="M 378.86 99.58 l -55.54 35.04 c -12.12 -20.92 -29.56 -38.36 -50.48 -50.48 l 35.04 -55.54 C 337.03 45.97 361.48 70.42 378.86 99.58 z" style="stroke: none; stroke-width: 1; stroke-dasharray: none; stroke-linecap: butt; stroke-linejoin: miter; stroke-miterlimit: 10; fill: #E59683; fill-rule: nonzero; opacity: 1;" transform=" matrix(1 0 0 1 0 0) " stroke-linecap="round" />
  <path d="M 323.32 272.84 l 55.53 35.05 c -17.37 29.15 -41.82 53.6 -70.97 70.97 l -35.04 -55.54 C 293.76 311.21 311.2 293.76 323.32 272.84 z" style="stroke: none; stroke-width: 1; stroke-dasharray: none; stroke-linecap: butt; stroke-linejoin: miter; stroke-miterlimit: 10; fill: #C17E72; fill-rule: nonzero; opacity: 1;" transform=" matrix(1 0 0 1 0 0) " stroke-linecap="round" />
  <path d="M 239.42 337.17 l 14.5 64.06 c -16.06 4.07 -32.87 6.23 -50.19 6.23 s -34.14 -2.16 -50.2 -6.23 l 14.5 -64.06 c 11.39 3.04 23.35 4.67 35.7 4.67 C 216.07 341.84 228.03 340.21 239.42 337.17 z" style="stroke: none; stroke-width: 1; stroke-dasharray: none; stroke-linecap: butt; stroke-linejoin: miter; stroke-miterlimit: 10; fill: #9DBBD1; fill-rule: nonzero; opacity: 1;" transform=" matrix(1 0 0 1 0 0) " stroke-linecap="round" />
  <path d="M 253.92 6.23 l -14.5 64.06 c -11.39 -3.04 -23.35 -4.67 -35.69 -4.67 c -12.35 0 -24.31 1.63 -35.7 4.67 l -14.5 -64.06 C 169.59 2.16 186.41 0 203.73 0 S 237.86 2.16 253.92 6.23 z" style="stroke: none; stroke-width: 1; stroke-dasharray: none; stroke-linecap: butt; stroke-linejoin: miter; stroke-miterlimit: 10; fill: #E2BAB5; fill-rule: nonzero; opacity: 1;" transform=" matrix(1 0 0 1 0 0) " stroke-linecap="round" />
  <path d="M 283.146 118.692 c -4.037 -3.77 -10.364 -3.554 -14.135 0.482 l -65.291 69.905 l -65.281 -69.904 c -3.769 -4.038 -10.099 -4.252 -14.134 -0.483 c -4.036 3.77 -4.253 10.098 -0.483 14.134 l 69.898 74.848 v 94.867 c 0 5.523 4.478 10 10 10 s 10 -4.477 10 -10 v -94.866 l 69.908 -74.848 C 287.398 128.79 287.182 122.461 283.146 118.692 z" style="stroke: none; stroke-width: 1; stroke-dasharray: none; stroke-linecap: butt; stroke-linejoin: miter; stroke-miterlimit: 10; fill: #4D4D4D; fill-rule: nonzero; opacity: 0;" transform=" matrix(1 0 0 1 0 0) " stroke-linecap="round" />
</g>
  <g transform="translate(183.46 141.64) scale(5.86 3.51)">
   <text font-family="Bombardier" font-size="40" font-weight="normal" style="stroke: none; stroke-width: 1; stroke-dasharray: none; stroke-linecap: butt; stroke-linejoin: miter; stroke-miterlimit: 10; fill: #006699; fill-rule: nonzero; opacity: 1;" ><tspan x="-29.1" y="8.98" style="stroke: none; stroke-width: 0; stroke-dasharray: none; stroke-linecap: butt; stroke-linejoin: miter; stroke-miterlimit: 4; fill: #006699; fill-rule: ; opacity: 1;">R</tspan><tspan x="-9.78" y="8.98" style="stroke: none; stroke-width: 0; stroke-dasharray: none; stroke-linecap: butt; stroke-linejoin: miter; stroke-miterlimit: 4; fill: #006699; fill-rule: ; opacity: 1;">A</tspan><tspan x="9.13" y="8.98" style="stroke: none; stroke-width: 0; stroke-dasharray: none; stroke-linecap: butt; stroke-linejoin: miter; stroke-miterlimit: 4; fill: #006699; fill-rule: ; opacity: 1;">D</tspan></text>
 </g>
</svg>